<?xml version="1.0" encoding="utf-8"?>
<!-- Generator: Adobe Illustrator 20.1.0, SVG Export Plug-In . SVG Version: 6.00 Build 0)  -->
<svg version="1.1" id="Layer_1" xmlns="http://www.w3.org/2000/svg" xmlns:xlink="http://www.w3.org/1999/xlink" x="0px" y="0px"
	 viewBox="0 0 358.5 121.5" style="enable-background:new 0 0 358.5 121.5;" xml:space="preserve">
<style type="text/css">
	.st0{fill:#C90000;}
</style>
<g>
	<path class="st0" d="M336.5,100.7c-8.7,6.8-12,1.2-12,1.2s-1.7,3.4-0.2,5.6c0,0,0.5,0.9,0.2,1.8c-0.3,0.9,0.5,2.5,1.3,3.4
		c0.5,0.6,3.9,3.8,6.2,6c4-0.4,7.8-1.6,11.3-3.5c4.9-2.8,8.7-7.1,11.4-12.6c-2-3.8-3.8-7.8-4.2-8.9c-0.7-1.9-2.4-2-2.4-2
		s-2-3.7-6.2-2.4C341.8,89.4,345.2,93.9,336.5,100.7L336.5,100.7z M336.5,100.7"/>
	<path class="st0" d="M301.4,46.7l0.1-0.2l17.1,23c1-0.1,2.2,0.6,3.1,1.7c1.1,1.6,1.1,3.4,0.1,4.2c-1.1,0.8-2.9,0.1-4-1.4
		c-0.8-1.1-1-2.3-0.7-3.2l-17.8-24c0,0-0.9,0.4-0.1,2.2c0.9,1.8,5.9,14.4,3.4,25c0,0-0.4,1.8,0.3,2.7l23.1,25.9c0,0,3.3,2.4,9.1-1.9
		c5.6-4.1,7.3-9,6.1-11.2c0,0-13.2-18.6-18.9-31c0,0,0-0.9-4.9-2.8c-4.9-1.9-6.7-3.1-14.9-9.7c0,0-0.3-0.2-0.6-0.3"/>
</g>
<g>
	<path class="st0" d="M39.7,78.4c-2.7,0-4.8-0.6-6.4-1.8c-0.6-0.6-1-2.3-1-5c0-2.7,0.1-6.3,0.4-10.7C30.6,66.6,28.4,71,26.1,74
		c-2.2,3-5.1,4.4-8.5,4.4c-3.4,0-6.3-1.5-8.6-4.4c-2.4-3-3.5-7.7-3.5-14.2c0-6.5,1.8-12.2,5.5-17.2c3.6-5,8.4-7.4,14.3-7.4
		c2.9,0,5.9,1.1,9,3.4c1.3-15.6,2.4-24.4,3.5-26.4c0.5-0.9,1.6-2.2,3.4-3.8c1.8-1.7,3.3-2.5,4.5-2.5c1.2,0,1.8,1.9,1.8,5.6
		c0,4.4-0.4,8.2-1.2,11.4c-2.2,8.2-3.5,13.5-4.1,15.7c-1.1,8.6-1.7,18.8-1.7,30.5c0,2.2,0.2,3.2,0.7,3.2c1.4-0.1,3.4-1.8,5.8-5
		c2.4-3.3,4.8-7.5,7.1-12.8c2.4-5.2,3.8-7.9,4.3-7.9c0.5,0,0.8,0.3,0.8,1c0,2.2-1.2,5.8-3.5,10.7C49.4,71.7,44.1,78.4,39.7,78.4z
		 M24.6,39.5c-2.2,0-4.3,1.7-6.5,5.2c-2.2,3.4-3.2,7.4-3.2,11.9c0,4.5,0.6,8.2,1.7,11.1c1.2,2.9,2.6,4.3,4.4,4.3
		c3.6,0,7.7-7.2,12.4-21.6c0.4-4.4,0.6-7,0.6-7.8C31.6,40.6,28.5,39.5,24.6,39.5z"/>
	<path class="st0" d="M60.7,78.4c-3.1,0-5.5-0.6-7.1-1.9c-0.6-0.6-0.8-2.6-0.8-6c0-3.4,0.3-9.2,0.8-17.2c0.5-8,1-12.4,1.4-13
		c0.4-0.6,1.6-1.8,3.7-3.6c2.1-1.8,3.7-2.6,4.9-2.6c1.2,0,1.7,1.5,1.7,4.6c0,0.8-0.2,2.4-0.7,4.7c-0.4,2.3-0.9,4-1.5,5
		c-1,2.6-1.6,9.6-1.6,20.8c0,2.2,0.2,3.2,0.7,3.2c1.4-0.1,3.2-1.8,5.6-5.1c2.4-3.3,4.8-7.6,7.1-12.8c2.4-5.2,3.8-7.8,4.3-7.8
		c0.5,0,0.8,0.3,0.8,1c0,2.2-1.2,5.8-3.5,10.7C70.3,71.7,65,78.4,60.7,78.4z M57.2,19.1c0-1.4,0.8-2.7,2.3-3.7
		c1.5-1,2.9-1.6,4.1-1.6c2.2,0,3.2,1.2,3.2,3.7c0,2.5-0.6,4.6-1.9,6.4c-1.3,1.8-3.1,2.7-5.4,2.7C58,26.7,57.2,24.2,57.2,19.1z"/>
	<path class="st0" d="M101.7,48.6l0.8-4.6c-3.3-0.6-4.9-2.5-4.9-5.5c0-3,2.2-4.5,6.5-4.5c4.1-20.5,9.2-30.7,15.2-30.7
		c1.2,0,2.2,1,3.1,3c0.9,2,1.3,4.9,1.3,8.8c0,3.8-0.9,8.4-2.6,13.7c-1.8,5.3-3.9,9.5-6.4,12.7l0.4,0.8c2.3,1,4.7,1.6,7.1,1.6
		c2.4,0,4.4-0.1,5.8-0.4c1.4-0.3,2.2-0.4,2.3-0.4c1,0,1.4,0.5,1.4,1.6c0,0.9-0.8,1.5-2.5,2c-1.6,0.4-3.5,0.7-5.7,0.7
		s-4.7-0.4-7.6-1.3c2.4,6.7,3.6,15.5,3.6,26.2s-1.2,19.3-3.6,25.7c-2.4,6.4-5.6,9.6-9.5,9.6c-2.2,0-4.2-0.8-6-2.3
		c-1.8-1.5-2.6-4.1-2.6-7.7c0-12.6,1-27.4,3.1-44.2c-2.3,1.2-4.6,2.2-7,2.9c1.3,5.6,1.9,10.8,1.9,15.7c0,4.9-0.1,8.9-0.2,11.9
		c-0.2,3.1-0.5,6.6-1.1,10.7c-0.6,4-1.3,7.6-2.2,10.6c-0.9,3-2.2,5.6-3.8,7.7c-1.7,2.1-3.8,3.2-6.3,3.2c-2.5,0-4.6-0.8-6.2-2.5
		c-1.6-1.7-2.5-5-2.5-10.1c0-14.2,0.8-29.7,2.4-46.4c-4.6-1.8-6.8-5.1-6.8-9.8c0-2.9,0.7-5.3,2.2-7.2c1.5-1.9,3.3-2.9,5.6-2.9
		c0.6,0,1.1,0,1.4,0.1c1.1-7.1,2.2-13,3.2-17.5c1-4.6,2.7-8.4,5-11.6c2.4-3.2,4.7-4.8,6.9-4.8c2.6,0,3.8,2.8,3.8,8.5
		c0,8.8-3.3,18.8-9.8,30.1c2,2.2,3.8,5.5,5.4,10.1C95.8,51.4,98.7,50.2,101.7,48.6z M76.4,41c-2.2,0-3.4,1.2-3.4,3.6
		c0,2.4,1.3,4.5,3.8,6.2l1.1-9.6C77.4,41,76.9,41,76.4,41z M84,58.1c-0.8,11-1.2,20.9-1.2,29.9c0,9,0.1,15.1,0.4,18.5
		c0.2,3.4,0.8,5,1.7,5c2.4,0,4.4-3.5,5.9-10.5c1.5-7,2.3-14.5,2.3-22.6s-0.8-15.1-2.5-21.1C88.5,57.8,86.4,58.1,84,58.1z M84.3,53.1
		c1.2,0,2.8-0.1,4.7-0.2c-1.1-3-2.4-5.2-3.8-6.8l-0.2,0.5C84.6,49.4,84.4,51.6,84.3,53.1z M94.9,13.2c0-3.2-0.4-4.8-1.1-4.8
		c-1.3,0-2.7,2.9-4.1,8.6c-1.5,5.8-2.8,13.4-4,23C91.8,29.4,94.9,20.4,94.9,13.2z M106.6,80.8c0,14.7,0.7,22.1,2,22.1
		c1.9,0,3.6-2.8,5.1-8.5c1.5-5.7,2.2-12.1,2.2-19.3c0-15.2-1.5-25-4.6-29.3l-2.2,2.2C107.5,61.4,106.6,72.3,106.6,80.8z M118,29.5
		c1.9-5.1,2.9-9,2.9-11.7c0-5.2-0.5-7.8-1.4-7.8c-3,0-5.8,8.6-8.5,25.9c0.8,0.6,1.6,1.6,2.4,2.9C114.6,37.7,116.1,34.6,118,29.5z"/>
	<path class="st0" d="M139.3,78.4c-4.5,0-8-1.7-10.7-5.1c-2.6-3.4-4-7.3-4-11.6c0-8.7,1.8-15.3,5.5-19.8c3.7-4.5,8.4-6.7,14.3-6.7
		c2.7,0,5,0.7,6.7,2.2c1.8,1.5,2.6,3.5,2.6,6.1c0,4.8-2,8.8-6.1,12.1c-4,3.2-9,4.9-14.8,5.1c0.3,3.1,1.4,5.8,3.2,8.1
		c1.8,2.3,3.9,3.4,6.3,3.4c2.4,0,4.6-0.6,6.5-1.7c1.9-1.1,3.7-2.7,5.3-4.8c3.4-4.4,6.2-9.4,8.6-15c0.6-1.4,1.1-2.5,1.5-3.1
		c0.4-0.6,0.8-1,1.2-1c0.4,0,0.7,0.3,0.7,1c0,4-2.4,10-7.3,18C153.6,74.1,147,78.4,139.3,78.4z M132.9,57.8
		c4.7-0.8,8.2-2.3,10.4-4.6c2.2-2.2,3.3-5.2,3.3-8.8c0-3.6-1.2-5.4-3.5-5.4c-2.8,0-5.2,1.9-7.1,5.8C134.1,48.7,133.1,53,132.9,57.8z
		"/>
	<path class="st0" d="M170.3,46.5l6.6-0.7c0.6,0,1.2,0.4,1.7,1.1c0.5,0.7,0.7,1.5,0.7,2.3c0,0.8-0.3,3.5-0.8,8.2
		c-0.5,4.6-0.8,8.3-0.8,11c0,2.7,0.2,4,0.7,4c1.4-0.1,3.2-1.8,5.6-5.1c2.4-3.3,4.8-7.6,7.1-12.8c2.4-5.2,3.8-7.8,4.3-7.8
		c0.5,0,0.8,0.3,0.8,1c0,2.2-1.2,5.8-3.5,10.7c-6.3,13.4-11.6,20.2-16,20.2c-3.1,0-5.5-0.6-7.1-1.9c-0.6-0.6-0.8-4-0.8-10.4
		c0-6.4,0.7-11.9,2-16.4c-4.6,0-7.9-1.5-9.7-4.4c-1-1.5-1.4-3.2-1.4-5.2s0.4-3.6,1.2-5c0.8-1.4,1.9-2.2,3.4-2.2
		c1.5,0,2.8,0.8,4.1,2.3c1.2,1.6,1.9,3.3,1.9,5.2c0,1.9-0.6,3.8-1.7,5.8C169,46.4,169.5,46.5,170.3,46.5z"/>
	<path class="st0" d="M205.1,78.4c-4.5,0-8-1.7-10.7-5.1c-2.6-3.4-4-7.3-4-11.6c0-8.7,1.8-15.3,5.5-19.8c3.7-4.5,8.4-6.7,14.3-6.7
		c2.7,0,5,0.7,6.7,2.2c1.8,1.5,2.6,3.5,2.6,6.1c0,4.8-2,8.8-6.1,12.1c-4,3.2-9,4.9-14.8,5.1c0.3,3.1,1.4,5.8,3.2,8.1
		c1.8,2.3,3.9,3.4,6.3,3.4s4.6-0.6,6.5-1.7c1.9-1.1,3.7-2.7,5.3-4.8c3.4-4.4,6.2-9.4,8.6-15c0.6-1.4,1.1-2.5,1.5-3.1
		c0.4-0.6,0.8-1,1.2-1c0.4,0,0.7,0.3,0.7,1c0,4-2.4,10-7.3,18C219.3,74.1,212.8,78.4,205.1,78.4z M198.7,57.8
		c4.7-0.8,8.2-2.3,10.4-4.6c2.2-2.2,3.3-5.2,3.3-8.8c0-3.6-1.2-5.4-3.5-5.4c-2.8,0-5.2,1.9-7.1,5.8C199.9,48.7,198.9,53,198.7,57.8z
		"/>
	<path class="st0" d="M234.9,71.3l0.1,3.7c0,2.2-0.6,3.4-1.9,3.4c-1.9,0-3.8-0.3-5.5-0.8c-1.8-0.5-2.6-1.2-2.6-2.2
		c0-0.9,0.2-4.1,0.7-9.5c0.4-5.4,0.7-9.5,0.7-12.2v-7.1c0-3.8,0.4-6.2,1.2-7c0.8-0.8,2.2-2,4.3-3.5c2-1.5,3.5-2.3,4.4-2.3
		c0.9,0,1.5,0.2,1.7,0.5c0.2,0.3,0.4,0.9,0.4,1.8c0,4.2-0.8,8.2-2.4,12c-0.4,4.6-0.6,7.7-0.6,9.5c0.3-0.5,2-3.2,5-8.2
		c3-5,5.6-8.6,7.7-10.9c2.1-2.3,4-3.5,5.7-3.5c1.7,0,3.2,0.6,4.5,1.7c1.3,1.1,2,2.5,2,4.2c0,3.5-0.4,8.7-1.1,15.5
		c-0.8,6.8-1.1,11.2-1.1,13c0,1.8,0.2,2.7,0.7,2.7c1.4-0.1,3.2-1.8,5.6-5.1c2.4-3.3,4.8-7.6,7.1-12.8c2.4-5.2,3.8-7.8,4.3-7.8
		c0.5,0,0.8,0.3,0.8,1c0,2.2-1.2,5.8-3.5,10.7c-6.3,13.4-11.6,20.2-16,20.2c-3.1,0-5.5-0.6-7.1-1.9c-0.6-0.6-0.8-2-0.8-4.4
		c0-2.4,0.2-6.2,0.7-11.5c0.4-5.3,0.7-9.3,0.7-11.9s-0.5-4-1.4-4c-0.9,0-3.3,2.7-7.3,8.2c-3.9,5.5-6,9-6.2,10.5
		C235.2,66.2,234.9,68.8,234.9,71.3z"/>
	<path class="st0" d="M297,58.2c-6.3,13.4-11.7,20.2-16,20.2c-4.4,0-6.9-0.5-7.7-1.6c-0.8-1-1.1-4.5-1.1-10.3
		c0-5.8,0.6-14.3,1.7-25.3c-4-0.8-6.1-2.4-6.4-4.9c0-1.3,0.8-1.9,2.5-1.9c1.7,0,3.2,0.3,4.4,1c0.7-5.8,1.6-11.6,2.5-17.5
		c0.2-1.5,1-3,2.3-4.3c1.3-1.4,2.5-2,3.7-2c1,0,1.6,1.6,1.6,4.9c0,1.5-0.6,8.5-1.7,21c2.2-0.4,4.5-1.2,7.1-2.4
		c2.6-1.2,4.1-1.8,4.6-1.8c1.4,0,2.2,0.4,2.2,1.3c0.1,0.8-1.4,1.9-4.4,3.3c-3,1.4-6.3,2.5-9.8,3.2c-1,11.7-1.4,20.5-1.4,26.5
		c0,3.2,0.5,4.8,1.4,4.8c1.4-0.1,3.4-1.8,5.8-5c2.4-3.3,4.8-7.5,7.1-12.8c2.4-5.2,3.8-7.9,4.3-7.9c0.5,0,0.8,0.3,0.8,1
		C300.5,49.8,299.3,53.4,297,58.2z"/>
</g>
</svg>
