<?xml version="1.0" encoding="utf-8"?>
<svg viewBox="0 0 500 500" xmlns="http://www.w3.org/2000/svg">
  <g transform="matrix(0.707107, 0.707107, -0.707107, 0.707107, 116.18129, -35.953484)">
    <title>Paper</title>
    <path d="M 85.184 196.417 C 85.763 134.42 85.415 54.776 83.218 55.875 C 77.371 58.533 223.097 60.475 233.218 55.875" style="stroke-linecap: round; stroke-linejoin: round; stroke-width: 24px; stroke: rgb(130, 151, 59); fill: none;" transform="matrix(0, -1, 1, 0, 64.763756, 335.928436)"/>
    <path d="M 128.405 205.995 C 128.405 208.818 184.974 154.773 184.974 149.427" style="fill: none; stroke: rgb(130, 151, 59); stroke-width: 24px; stroke-linecap: round; stroke-linejoin: round;" transform="matrix(0.707107, -0.707107, 0.707107, 0.707107, -79.76736, 162.846554)"/>
    <path d="M 176.734 211.515 C 178.127 212.908 207.512 182.297 206.732 181.517" style="fill: none; stroke: rgb(130, 151, 59); stroke-width: 24px; stroke-linecap: round; stroke-linejoin: round;" transform="matrix(0.707107, -0.707107, 0.707107, 0.707107, -82.814575, 193.146054)"/>
    <path d="M 224.633 216.918 C 224.819 217.196 229.098 212.784 228.966 212.586" style="fill: none; stroke: rgb(130, 151, 59); stroke-width: 24px; stroke-linecap: round; stroke-linejoin: round;" transform="matrix(0.707107, -0.707107, 0.707107, 0.707107, -85.428577, 223.273771)"/>
  </g>
  <g transform="matrix(1, 0, 0, 1, -13.292305, 37.531216)">
    <title>Backpack</title>
    <path d="M 148.845 104.299 C 169.169 28.149 275.543 24.294 317.735 104.299 C 325.066 106.714 331.353 213.131 328.277 285.985 M 293.374 346.768 C 247.475 341.872 152.555 341.559 148.845 352.943 C 125.172 352.943 145.21 118.373 148.845 104.299" style="stroke-linejoin: round; stroke-linecap: round; stroke-width: 24px; fill: none; stroke: rgb(130, 151, 59);"/>
    <path d="M 147.282 232.531 C 144.69 223.892 321.927 222.788 325.554 234.877" style="stroke: rgb(130, 151, 59); fill: none; stroke-linecap: round; stroke-linejoin: round; stroke-width: 24px;"/>
    <path d="M 189.504 206.728 C 191.621 204.611 193.514 243.578 189.504 247.588" style="fill: none; stroke: rgb(130, 151, 59); stroke-linecap: round; stroke-linejoin: round; stroke-width: 16px;"/>
    <path d="M 213.725 206.444 C 215.842 204.327 217.735 243.294 213.725 247.304" style="fill: none; stroke: rgb(130, 151, 59); stroke-linecap: round; stroke-linejoin: round; stroke-width: 16px;"/>
    <path d="M 237.725 206.444 C 239.842 204.327 241.735 243.294 237.725 247.304" style="fill: none; stroke: rgb(130, 151, 59); stroke-linecap: round; stroke-linejoin: round; stroke-width: 16px;"/>
    <path d="M 261.725 206.444 C 263.842 204.327 265.735 243.294 261.725 247.304" style="fill: none; stroke: rgb(130, 151, 59); stroke-linecap: round; stroke-linejoin: round; stroke-width: 16px;"/>
    <path d="M 285.454 208.049 C 287.571 205.932 289.464 244.899 285.454 248.909" style="fill: none; stroke: rgb(130, 151, 59); stroke-linecap: round; stroke-linejoin: round; stroke-width: 16px;"/>
    <path d="M 166.454 207.049 C 168.571 204.932 170.464 243.899 166.454 247.909" style="fill: none; stroke: rgb(130, 151, 59); stroke-linecap: round; stroke-linejoin: round; stroke-width: 16px;"/>
    <path d="M 308.565 209.008 C 310.682 206.891 312.575 245.858 308.565 249.868" style="fill: none; stroke: rgb(130, 151, 59); stroke-linecap: round; stroke-linejoin: round; stroke-width: 16px;"/>
    <path style="fill: none; stroke: rgb(130, 151, 59); stroke-linecap: round; stroke-linejoin: round; stroke-width: 24px;" d="M 192.068 50.003 C 192.068 50.003 207.706 -25.06 262.439 47.657"/>
  </g>
  <g transform="matrix(0.866026, 0.5, -0.5, 0.866026, 241.290146, -7.905201)">
    <title>Trumpet</title>
    <path style="stroke: rgb(130, 151, 59); stroke-width: 24px; stroke-linecap: round; stroke-linejoin: round; fill: none;" d="M 165 110.551 C 243.579 95.857 230.71 379.636 229.499 375.963"/>
    <path style="stroke: rgb(130, 151, 59); stroke-width: 24px; stroke-linecap: round; stroke-linejoin: round; fill: none;" d="M 265 375.448 C 343.579 390.142 330.71 106.363 329.499 110.036" transform="matrix(-1, 0, 0, -1, 596.000061, 486.000183)"/>
    <line x1="231.253" y1="376.619" x2="265.819" y2="376.619" style="stroke: rgb(130, 151, 59); stroke-width: 24px; stroke-linecap: round; stroke-linejoin: round;"/>
    <path d="M 166.047 109.773 C 162.716 95.225 328.815 96.693 331.81 109.773" style="stroke: rgb(130, 151, 59); stroke-linejoin: round; stroke-linecap: round; stroke-width: 24px;"/>
    <ellipse cx="292.109" cy="283.28" rx="25.41" ry="93.046" style="fill: none; stroke: rgb(130, 151, 59); stroke-linecap: round; stroke-linejoin: round; stroke-width: 24px;"/>
    <path d="M 315.954 248.169 C 309.562 239.725 206.42 243.47 210 248.2" style="stroke: rgb(130, 151, 59); stroke-width: 24px; stroke-linecap: round; stroke-linejoin: round;"/>
    <path d="M 315.939 288.2 C 309.356 283.275 203.871 283.615 210 288.2" style="stroke: rgb(130, 151, 59); stroke-width: 24px; stroke-linecap: round; stroke-linejoin: round;"/>
    <path d="M 313.908 328.2 C 326.673 326.361 230.211 325.288 210 328.2" style="stroke: rgb(130, 151, 59); stroke-width: 24px; stroke-linecap: round; stroke-linejoin: round;"/>
  </g>
</svg>